<svg width="800" height="1200" xmlns="http://www.w3.org/2000/svg">
  <!-- Background gradient -->
  <defs>
    <linearGradient id="bg-gradient" x1="0%" y1="0%" x2="100%" y2="100%">
      <stop offset="0%" style="stop-color:#0b132b;stop-opacity:1" />
      <stop offset="100%" style="stop-color:#1c2541;stop-opacity:1" />
    </linearGradient>
    
    <!-- Particle pattern -->
    <pattern id="particle-pattern" width="200" height="200" patternUnits="userSpaceOnUse">
      <circle cx="10" cy="10" r="2" fill="#5bc0be" opacity="0.5" />
      <circle cx="50" cy="30" r="1.5" fill="#5bc0be" opacity="0.3" />
      <circle cx="90" cy="60" r="2.5" fill="#5bc0be" opacity="0.4" />
      <circle cx="130" cy="20" r="1" fill="#5bc0be" opacity="0.2" />
      <circle cx="170" cy="90" r="2" fill="#5bc0be" opacity="0.5" />
      <circle cx="30" cy="120" r="1.5" fill="#5bc0be" opacity="0.3" />
      <circle cx="70" cy="150" r="2" fill="#5bc0be" opacity="0.4" />
      <circle cx="110" cy="180" r="1" fill="#5bc0be" opacity="0.2" />
      <circle cx="150" cy="140" r="2.5" fill="#5bc0be" opacity="0.5" />
      <circle cx="190" cy="170" r="1.5" fill="#5bc0be" opacity="0.3" />
    </pattern>
    
    <!-- Wave pattern -->
    <pattern id="wave-pattern" width="400" height="400" patternUnits="userSpaceOnUse">
      <path d="M0,100 Q100,50 200,100 T400,100" fill="none" stroke="#6fffe9" stroke-width="1" opacity="0.2" />
      <path d="M0,150 Q100,100 200,150 T400,150" fill="none" stroke="#6fffe9" stroke-width="1" opacity="0.2" />
      <path d="M0,200 Q100,150 200,200 T400,200" fill="none" stroke="#6fffe9" stroke-width="1" opacity="0.2" />
      <path d="M0,250 Q100,200 200,250 T400,250" fill="none" stroke="#6fffe9" stroke-width="1" opacity="0.2" />
      <path d="M0,300 Q100,250 200,300 T400,300" fill="none" stroke="#6fffe9" stroke-width="1" opacity="0.2" />
    </pattern>
    
    <!-- Glow effect -->
    <radialGradient id="glow" cx="50%" cy="50%" r="50%" fx="50%" fy="50%">
      <stop offset="0%" style="stop-color:#6fffe9;stop-opacity:0.3" />
      <stop offset="100%" style="stop-color:#6fffe9;stop-opacity:0" />
    </radialGradient>
  </defs>
  
  <!-- Main background -->
  <rect width="100%" height="100%" fill="url(#bg-gradient)" />
  
  <!-- Particle pattern -->
  <rect width="100%" height="100%" fill="url(#particle-pattern)" />
  
  <!-- Wave pattern -->
  <rect width="100%" height="100%" fill="url(#wave-pattern)" />
  
  <!-- Glow effect -->
  <circle cx="400" cy="400" r="300" fill="url(#glow)" />
  
  <!-- Abstract shapes -->
  <circle cx="600" cy="300" r="100" fill="#3a506b" opacity="0.3" />
  <circle cx="200" cy="800" r="150" fill="#3a506b" opacity="0.2" />
  <circle cx="700" cy="900" r="80" fill="#5bc0be" opacity="0.1" />
  
  <!-- Accent lines -->
  <line x1="0" y1="200" x2="800" y2="200" stroke="#5bc0be" stroke-width="1" opacity="0.1" />
  <line x1="0" y1="600" x2="800" y2="600" stroke="#5bc0be" stroke-width="1" opacity="0.1" />
  <line x1="0" y1="1000" x2="800" y2="1000" stroke="#5bc0be" stroke-width="1" opacity="0.1" />
</svg> 