<svg width="800" height="1200" xmlns="http://www.w3.org/2000/svg">
  <!-- Background gradient -->
  <defs>
    <linearGradient id="bg-gradient" x1="0%" y1="0%" x2="100%" y2="100%">
      <stop offset="0%" style="stop-color:#1c2541;stop-opacity:1" />
      <stop offset="100%" style="stop-color:#0b132b;stop-opacity:1" />
    </linearGradient>
    
    <!-- Timeline pattern -->
    <pattern id="timeline-pattern" width="20" height="100" patternUnits="userSpaceOnUse">
      <line x1="10" y1="0" x2="10" y2="100" stroke="#5bc0be" stroke-width="2" opacity="0.1" stroke-dasharray="5,5" />
    </pattern>
    
    <!-- City skyline pattern -->
    <pattern id="skyline-pattern" width="400" height="100" patternUnits="userSpaceOnUse">
      <rect x="10" y="60" width="20" height="40" fill="#5bc0be" opacity="0.1" />
      <rect x="40" y="40" width="20" height="60" fill="#5bc0be" opacity="0.1" />
      <rect x="70" y="50" width="20" height="50" fill="#5bc0be" opacity="0.1" />
      <rect x="100" y="30" width="20" height="70" fill="#5bc0be" opacity="0.1" />
      <rect x="130" y="70" width="20" height="30" fill="#5bc0be" opacity="0.1" />
      <rect x="160" y="50" width="20" height="50" fill="#5bc0be" opacity="0.1" />
      <rect x="190" y="20" width="20" height="80" fill="#5bc0be" opacity="0.1" />
      <rect x="220" y="60" width="20" height="40" fill="#5bc0be" opacity="0.1" />
      <rect x="250" y="40" width="20" height="60" fill="#5bc0be" opacity="0.1" />
      <rect x="280" y="70" width="20" height="30" fill="#5bc0be" opacity="0.1" />
      <rect x="310" y="50" width="20" height="50" fill="#5bc0be" opacity="0.1" />
      <rect x="340" y="30" width="20" height="70" fill="#5bc0be" opacity="0.1" />
      <rect x="370" y="60" width="20" height="40" fill="#5bc0be" opacity="0.1" />
    </pattern>
    
    <!-- Glow effect -->
    <radialGradient id="glow" cx="50%" cy="70%" r="70%" fx="50%" fy="70%">
      <stop offset="0%" style="stop-color:#6fffe9;stop-opacity:0.2" />
      <stop offset="100%" style="stop-color:#6fffe9;stop-opacity:0" />
    </radialGradient>
  </defs>
  
  <!-- Main background -->
  <rect width="100%" height="100%" fill="url(#bg-gradient)" />
  
  <!-- Timeline pattern -->
  <rect width="100%" height="100%" fill="url(#timeline-pattern)" />
  
  <!-- City skyline pattern at bottom -->
  <rect x="0" y="900" width="800" height="300" fill="url(#skyline-pattern)" />
  
  <!-- Glow effect -->
  <circle cx="400" cy="700" r="400" fill="url(#glow)" />
  
  <!-- Timeline nodes -->
  <g transform="translate(400, 200)">
    <circle cx="0" cy="0" r="30" fill="#5bc0be" opacity="0.3" />
    <circle cx="0" cy="200" r="25" fill="#5bc0be" opacity="0.3" />
    <circle cx="0" cy="400" r="20" fill="#5bc0be" opacity="0.3" />
    <line x1="0" y1="30" x2="0" y2="170" stroke="#5bc0be" stroke-width="4" opacity="0.2" />
    <line x1="0" y1="225" x2="0" y2="375" stroke="#5bc0be" stroke-width="4" opacity="0.2" />
  </g>
  
  <!-- Abstract work symbols -->
  <g transform="translate(200, 300)">
    <rect x="-50" y="-30" width="100" height="60" rx="5" fill="#6fffe9" opacity="0.1" />
    <line x1="-30" y1="-10" x2="30" y2="-10" stroke="#6fffe9" stroke-width="2" opacity="0.2" />
    <line x1="-30" y1="0" x2="10" y2="0" stroke="#6fffe9" stroke-width="2" opacity="0.2" />
    <line x1="-30" y1="10" x2="20" y2="10" stroke="#6fffe9" stroke-width="2" opacity="0.2" />
  </g>
  
  <g transform="translate(600, 500)">
    <rect x="-50" y="-30" width="100" height="60" rx="5" fill="#6fffe9" opacity="0.1" />
    <line x1="-30" y1="-10" x2="30" y2="-10" stroke="#6fffe9" stroke-width="2" opacity="0.2" />
    <line x1="-30" y1="0" x2="10" y2="0" stroke="#6fffe9" stroke-width="2" opacity="0.2" />
    <line x1="-30" y1="10" x2="20" y2="10" stroke="#6fffe9" stroke-width="2" opacity="0.2" />
  </g>
  
  <!-- Accent lines -->
  <line x1="0" y1="500" x2="800" y2="500" stroke="#6fffe9" stroke-width="1" opacity="0.1" />
  <line x1="200" y1="0" x2="200" y2="1200" stroke="#6fffe9" stroke-width="1" opacity="0.1" />
  <line x1="600" y1="0" x2="600" y2="1200" stroke="#6fffe9" stroke-width="1" opacity="0.1" />
</svg> 