<svg width="800" height="1200" xmlns="http://www.w3.org/2000/svg">
  <!-- Background gradient -->
  <defs>
    <linearGradient id="bg-gradient" x1="0%" y1="0%" x2="100%" y2="100%">
      <stop offset="0%" style="stop-color:#1c2541;stop-opacity:1" />
      <stop offset="100%" style="stop-color:#3a506b;stop-opacity:1" />
    </linearGradient>
    
    <!-- Grid pattern -->
    <pattern id="grid-pattern" width="40" height="40" patternUnits="userSpaceOnUse">
      <path d="M 40 0 L 0 0 0 40" fill="none" stroke="#5bc0be" stroke-width="0.5" opacity="0.1" />
    </pattern>
    
    <!-- Book pattern -->
    <pattern id="book-pattern" width="100" height="100" patternUnits="userSpaceOnUse">
      <rect x="10" y="20" width="80" height="60" fill="none" stroke="#6fffe9" stroke-width="1" opacity="0.2" />
      <line x1="50" y1="20" x2="50" y2="80" stroke="#6fffe9" stroke-width="1" opacity="0.2" />
    </pattern>
    
    <!-- Glow effect -->
    <radialGradient id="glow" cx="50%" cy="30%" r="70%" fx="50%" fy="30%">
      <stop offset="0%" style="stop-color:#5bc0be;stop-opacity:0.2" />
      <stop offset="100%" style="stop-color:#5bc0be;stop-opacity:0" />
    </radialGradient>
  </defs>
  
  <!-- Main background -->
  <rect width="100%" height="100%" fill="url(#bg-gradient)" />
  
  <!-- Grid pattern -->
  <rect width="100%" height="100%" fill="url(#grid-pattern)" />
  
  <!-- Book pattern -->
  <rect width="100%" height="100%" fill="url(#book-pattern)" />
  
  <!-- Glow effect -->
  <circle cx="400" cy="300" r="400" fill="url(#glow)" />
  
  <!-- Abstract shapes representing education -->
  <path d="M 400,200 L 500,300 400,400 300,300 Z" fill="#5bc0be" opacity="0.2" />
  <path d="M 400,600 L 500,700 400,800 300,700 Z" fill="#5bc0be" opacity="0.2" />
  <path d="M 200,400 L 250,450 200,500 150,450 Z" fill="#6fffe9" opacity="0.2" />
  <path d="M 600,400 L 650,450 600,500 550,450 Z" fill="#6fffe9" opacity="0.2" />
  
  <!-- Graduation cap symbol -->
  <g transform="translate(400, 500) scale(2)">
    <path d="M 0,0 L 50,25 100,0 50,-25 Z" fill="#5bc0be" opacity="0.3" />
    <path d="M 50,25 L 50,50" stroke="#5bc0be" stroke-width="2" opacity="0.3" />
    <rect x="40" y="50" width="20" height="5" fill="#5bc0be" opacity="0.3" />
  </g>
  
  <!-- Accent lines -->
  <line x1="0" y1="300" x2="800" y2="300" stroke="#6fffe9" stroke-width="1" opacity="0.1" />
  <line x1="0" y1="700" x2="800" y2="700" stroke="#6fffe9" stroke-width="1" opacity="0.1" />
  <line x1="0" y1="1100" x2="800" y2="1100" stroke="#6fffe9" stroke-width="1" opacity="0.1" />
</svg> 