<svg width="800" height="1200" xmlns="http://www.w3.org/2000/svg">
  <!-- Background gradient -->
  <defs>
    <linearGradient id="bg-gradient" x1="0%" y1="0%" x2="100%" y2="100%">
      <stop offset="0%" style="stop-color:#0b132b;stop-opacity:1" />
      <stop offset="100%" style="stop-color:#3a506b;stop-opacity:1" />
    </linearGradient>
    
    <!-- Connection pattern -->
    <pattern id="connection-pattern" width="100" height="100" patternUnits="userSpaceOnUse">
      <circle cx="10" cy="10" r="2" fill="#5bc0be" opacity="0.2" />
      <circle cx="90" cy="90" r="2" fill="#5bc0be" opacity="0.2" />
      <line x1="10" y1="10" x2="90" y2="90" stroke="#5bc0be" stroke-width="0.5" opacity="0.1" />
      <circle cx="90" cy="10" r="2" fill="#5bc0be" opacity="0.2" />
      <circle cx="10" cy="90" r="2" fill="#5bc0be" opacity="0.2" />
      <line x1="90" y1="10" x2="10" y2="90" stroke="#5bc0be" stroke-width="0.5" opacity="0.1" />
    </pattern>
    
    <!-- People pattern -->
    <pattern id="people-pattern" width="200" height="100" patternUnits="userSpaceOnUse">
      <circle cx="50" cy="30" r="10" fill="#6fffe9" opacity="0.1" />
      <path d="M 40,50 L 50,80 60,50" fill="none" stroke="#6fffe9" stroke-width="1" opacity="0.1" />
      <circle cx="150" cy="30" r="10" fill="#6fffe9" opacity="0.1" />
      <path d="M 140,50 L 150,80 160,50" fill="none" stroke="#6fffe9" stroke-width="1" opacity="0.1" />
    </pattern>
    
    <!-- Glow effect -->
    <radialGradient id="glow" cx="50%" cy="40%" r="60%" fx="50%" fy="40%">
      <stop offset="0%" style="stop-color:#5bc0be;stop-opacity:0.2" />
      <stop offset="100%" style="stop-color:#5bc0be;stop-opacity:0" />
    </radialGradient>
  </defs>
  
  <!-- Main background -->
  <rect width="100%" height="100%" fill="url(#bg-gradient)" />
  
  <!-- Connection pattern -->
  <rect width="100%" height="100%" fill="url(#connection-pattern)" />
  
  <!-- People pattern -->
  <rect width="100%" height="100%" fill="url(#people-pattern)" />
  
  <!-- Glow effect -->
  <circle cx="400" cy="500" r="400" fill="url(#glow)" />
  
  <!-- Network visualization -->
  <g transform="translate(400, 400) scale(1.5)">
    <!-- Central node -->
    <circle cx="0" cy="0" r="30" fill="#5bc0be" opacity="0.3" />
    
    <!-- Surrounding nodes -->
    <circle cx="-100" cy="-100" r="20" fill="#6fffe9" opacity="0.2" />
    <circle cx="100" cy="-100" r="20" fill="#6fffe9" opacity="0.2" />
    <circle cx="-100" cy="100" r="20" fill="#6fffe9" opacity="0.2" />
    <circle cx="100" cy="100" r="20" fill="#6fffe9" opacity="0.2" />
    
    <!-- Connections -->
    <line x1="0" y1="0" x2="-100" y2="-100" stroke="#5bc0be" stroke-width="2" opacity="0.2" />
    <line x1="0" y1="0" x2="100" y2="-100" stroke="#5bc0be" stroke-width="2" opacity="0.2" />
    <line x1="0" y1="0" x2="-100" y2="100" stroke="#5bc0be" stroke-width="2" opacity="0.2" />
    <line x1="0" y1="0" x2="100" y2="100" stroke="#5bc0be" stroke-width="2" opacity="0.2" />
    <line x1="-100" y1="-100" x2="100" y2="-100" stroke="#5bc0be" stroke-width="1" opacity="0.1" />
    <line x1="-100" y1="100" x2="100" y2="100" stroke="#5bc0be" stroke-width="1" opacity="0.1" />
    <line x1="-100" y1="-100" x2="-100" y2="100" stroke="#5bc0be" stroke-width="1" opacity="0.1" />
    <line x1="100" y1="-100" x2="100" y2="100" stroke="#5bc0be" stroke-width="1" opacity="0.1" />
  </g>
  
  <!-- Abstract community symbols -->
  <g transform="translate(200, 800)">
    <circle cx="-20" cy="0" r="15" fill="#6fffe9" opacity="0.2" />
    <circle cx="20" cy="0" r="15" fill="#6fffe9" opacity="0.2" />
    <circle cx="0" cy="-30" r="15" fill="#6fffe9" opacity="0.2" />
    <path d="M -20,0 L 0,-30 L 20,0 Z" fill="none" stroke="#6fffe9" stroke-width="2" opacity="0.2" />
  </g>
  
  <g transform="translate(600, 800)">
    <circle cx="-20" cy="0" r="15" fill="#6fffe9" opacity="0.2" />
    <circle cx="20" cy="0" r="15" fill="#6fffe9" opacity="0.2" />
    <circle cx="0" cy="-30" r="15" fill="#6fffe9" opacity="0.2" />
    <path d="M -20,0 L 0,-30 L 20,0 Z" fill="none" stroke="#6fffe9" stroke-width="2" opacity="0.2" />
  </g>
  
  <!-- Accent lines -->
  <line x1="0" y1="600" x2="800" y2="600" stroke="#6fffe9" stroke-width="1" opacity="0.1" />
  <line x1="400" y1="0" x2="400" y2="1200" stroke="#6fffe9" stroke-width="1" opacity="0.1" />
</svg> 